<?xml version="1.0" encoding="iso-8859-1"?>
<!-- Generator: Adobe Illustrator 19.0.0, SVG Export Plug-In . SVG Version: 6.00 Build 0)  -->
<svg version="1.1" id="Capa_1" xmlns="http://www.w3.org/2000/svg" xmlns:xlink="http://www.w3.org/1999/xlink" x="0px" y="0px"
	 viewBox="0 0 512 512" style="enable-background:new 0 0 512 512;" xml:space="preserve">
<path style="fill:#ECF0F1;" d="M483.31,512H28.69C12.844,512,0,499.156,0,483.31V105.931h512V483.31
	C512,499.156,499.156,512,483.31,512z"/>
<path style="fill:#687492;" d="M512,105.931H0V28.69C0,12.844,12.844,0,28.69,0H483.31C499.156,0,512,12.844,512,28.69V105.931z"/>
<rect x="35.31" y="35.31" style="fill:#E64C3C;" width="35.31" height="35.31"/>
<rect x="105.931" y="35.31" style="fill:#F0C419;" width="35.31" height="35.31"/>
<rect x="176.552" y="35.31" style="fill:#24AE5F;" width="35.31" height="35.31"/>
<path style="fill:#489FDB;" d="M282.483,476.69h-52.966c-9.754,0-17.655-7.901-17.655-17.655l0,0
	c0-9.754,7.901-17.655,17.655-17.655h52.966c9.754,0,17.655,7.901,17.655,17.655l0,0C300.138,468.789,292.237,476.69,282.483,476.69
	z"/>
<g>
	<circle style="fill:#9677A7;" cx="256" cy="158.897" r="26.483"/>
	<path style="fill:#9677A7;" d="M300.138,264.828h-88.276v-14.486c0-16.375,13.277-29.652,29.652-29.652h28.981
		c16.366,0,29.643,13.277,29.643,29.652V264.828z"/>
</g>
<g>
	<rect x="123.586" y="300.138" style="fill:#4FB96F;" width="264.828" height="35.31"/>
	<rect x="123.586" y="370.759" style="fill:#4FB96F;" width="114.759" height="35.31"/>
	<rect x="273.655" y="370.759" style="fill:#4FB96F;" width="114.759" height="35.31"/>
</g>
<g>
</g>
<g>
</g>
<g>
</g>
<g>
</g>
<g>
</g>
<g>
</g>
<g>
</g>
<g>
</g>
<g>
</g>
<g>
</g>
<g>
</g>
<g>
</g>
<g>
</g>
<g>
</g>
<g>
</g>
</svg>
